<svg id="Layer_1" enable-background="new 0 0 256 256" height="512" viewBox="0 0 256 256" width="512" xmlns="http://www.w3.org/2000/svg"><g><g><g><g><g><g><g><path d="m193.186 167.877-60.138 26.147c-3.22 1.4-6.876 1.4-10.096 0l-60.137-26.147c-4.623-2.01-7.612-6.57-7.612-11.611v-53.156h145.596v53.156c-.001 5.041-2.991 9.601-7.613 11.611z" fill="#ffa91a"/></g></g></g><g><path d="m193.186 157.877-60.138 26.147c-3.22 1.4-6.876 1.4-10.096 0l-60.137-26.147c-4.623-2.01-7.612-6.57-7.612-11.611v10c0 5.041 2.99 9.601 7.612 11.611l60.137 26.147c3.22 1.4 6.876 1.4 10.096 0l60.138-26.147c4.623-2.01 7.613-6.57 7.613-11.611v-10c-.001 5.041-2.991 9.601-7.613 11.611z" fill="#f79219"/></g><g><g><g><path d="m122.833 135.502-95.581-42.725c-9.992-4.466-9.992-18.65 0-23.117l95.582-42.726c3.288-1.47 7.046-1.47 10.333 0l95.582 42.726c9.992 4.466 9.992 18.65 0 23.117l-95.582 42.725c-3.288 1.47-7.046 1.47-10.334 0z" fill="#ffa91a"/></g></g></g><g><g><path d="m55.2 65.74c-.78 0-1.5-.471-1.82-1.181-.22-.49-.24-1.04-.05-1.54.2-.5.57-.89 1.06-1.109l70.08-31.32c1.11-.5 2.3-.76 3.52-.76h.02c1.22 0 2.41.26 3.52.76l16.11 7.19c1 .449 1.46 1.64 1.01 2.649-.44.97-1.66 1.44-2.65 1.01l-16.1-7.199c-.61-.271-1.23-.41-1.9-.41s-1.29.14-1.9.41l-70.07 31.32h-.01c-.26.12-.53.18-.82.18zm98.92-20.87c-.28 0-.55-.061-.81-.17-.49-.221-.86-.61-1.05-1.11-.2-.5-.18-1.04.04-1.53.43-.979 1.65-1.45 2.64-1.01.49.22.86.61 1.05 1.11s.18 1.04-.04 1.529c-.32.721-1.04 1.181-1.83 1.181z" fill="#ffc91d"/></g></g><g><path d="m231.018 70.963c-.69.492-1.442.934-2.269 1.303l-95.582 42.725c-3.288 1.47-7.046 1.47-10.333 0l-95.582-42.724c-.827-.37-1.579-.811-2.269-1.303-7.647 5.45-6.895 17.717 2.269 21.813l95.582 42.725c3.288 1.47 7.046 1.47 10.333 0l95.582-42.725c9.164-4.097 9.916-16.363 2.269-21.814z" fill="#f79219"/></g><g><g><g><path d="m34.401 154.809c-1.748 0-3.166-1.416-3.166-3.166v-55.671c0-1.445.979-2.707 2.38-3.065l93.599-23.986c1.692-.439 3.418.585 3.851 2.28.436 1.695-.586 3.418-2.279 3.851l-91.22 23.377v53.214c0 1.75-1.417 3.166-3.165 3.166z" fill="#ffc91d"/></g></g></g><g><g><g><path d="m40.219 159.819h-11.638c-2.265 0-4.102-1.837-4.102-4.102v-14.463c0-5.479 4.442-9.921 9.921-9.921 5.479 0 9.921 4.442 9.921 9.921v14.463c0 2.266-1.836 4.102-4.102 4.102z" fill="#ffa91a"/></g></g></g><g><path d="m34.4 131.333c-.027 0-.052.004-.079.004v14.38c0 2.266-1.837 4.102-4.102 4.102h-5.741v5.898c0 2.266 1.836 4.102 4.102 4.102h11.639c2.265 0 4.102-1.836 4.102-4.102v-14.463c0-5.479-4.442-9.921-9.921-9.921z" fill="#f79219"/></g><g><path d="m38.451 132.204c.555 1.238.871 2.606.871 4.051v14.463c0 2.265-1.837 4.102-4.102 4.102h-10.741v.898c0 2.265 1.836 4.102 4.102 4.102h11.639c2.265 0 4.102-1.837 4.102-4.102v-14.463c-.001-4.036-2.413-7.501-5.871-9.051z" fill="#ef7816"/></g></g></g></g><g><g><g><circle cx="128" cy="195.485" fill="#76a34f" r="43.598"/></g></g><g><path d="m156.22 162.265c6.468 7.606 10.378 17.453 10.378 28.22 0 24.078-19.519 43.597-43.598 43.597-10.766 0-20.614-3.91-28.22-10.378 7.997 9.405 19.908 15.378 33.22 15.378 24.078 0 43.598-19.519 43.598-43.597 0-13.313-5.974-25.223-15.378-33.22z" fill="#648940"/></g><g><g><g><path d="m143.131 219.432v4.472c0 1.137-.922 2.06-2.06 2.06h-26.142c-1.137 0-2.06-.922-2.06-2.06v-4.472z" fill="#7c3108"/></g><g><path d="m140.316 220.563h-24.632c-9.567 0-17.323-7.756-17.323-17.323v-7.808c0-1.131.917-2.048 2.048-2.048h55.182c1.131 0 2.048.917 2.048 2.048v7.808c0 9.567-7.756 17.323-17.323 17.323z" fill="#8c3f0a"/></g><g><path d="m155.591 193.385h-2.952v4.855c0 9.567-7.756 17.323-17.323 17.323h-24.632c-3.504 0-6.76-1.048-9.486-2.837 3.095 4.717 8.423 7.837 14.486 7.837h24.632c9.567 0 17.323-7.755 17.323-17.323v-7.808c0-1.131-.917-2.047-2.048-2.047z" fill="#6d2e03"/></g></g><g><g><path d="m142.455 185.485c-5.202 5.202-13.972 5.358-18.026 5.112-1.281-.078-2.307-1.104-2.385-2.385-.246-4.055-.09-12.824 5.112-18.026s13.972-5.358 18.026-5.112c1.281.078 2.307 1.104 2.385 2.385.246 4.054.09 12.824-5.112 18.026z" fill="#f79219"/></g><g><path d="m147.567 167.459c-.078-1.281-1.104-2.307-2.385-2.385-.716-.044-1.585-.073-2.55-.065-.034 4.497-.894 11.193-5.177 15.476s-10.979 5.144-15.476 5.177c-.007.965.022 1.834.065 2.55.078 1.281 1.104 2.307 2.385 2.385 4.055.247 12.824.09 18.026-5.112s5.358-13.972 5.112-18.026z" fill="#ef7816"/></g><g><path d="m112.165 186.889c3.816 3.816 10.249 3.93 13.223 3.75.94-.057 1.692-.81 1.749-1.749.181-2.974.066-9.407-3.75-13.223s-10.249-3.93-13.223-3.75c-.94.057-1.692.81-1.749 1.749-.181 2.974-.066 9.407 3.75 13.223z" fill="#ffc91d"/></g><g><path d="m123.387 175.666c-.867-.867-1.873-1.535-2.94-2.06 1.784 3.625 1.829 7.985 1.689 10.283-.057.939-.81 1.692-1.749 1.749-2.298.14-6.658.095-10.283-1.689.525 1.066 1.193 2.073 2.06 2.94 3.816 3.816 10.249 3.93 13.223 3.75.94-.057 1.692-.81 1.749-1.749.182-2.975.067-9.408-3.749-13.224z" fill="#ffa91a"/></g></g></g></g></g></svg>